<?xml version="1.0" ?><svg style="enable-background:new 0 0 512 512;" version="1.1" viewBox="0 0 512 512" xml:space="preserve" xmlns="http://www.w3.org/2000/svg" xmlns:xlink="http://www.w3.org/1999/xlink"><style type="text/css">
	.st0{fill:#35441A;}
	.st1{fill:#05CC47;}
	.st2{opacity:0.45;fill:#231F20;}
	.st3{fill:#FFFFFF;}
</style><g id="Edges"/><g id="Background_Bottom"><g><path class="st0" d="M492.3,443.1c0,34.2-27.7,61.9-61.9,61.9H80.7c-34.2,0-61.9-27.7-61.9-61.9V93.4c0-34.2,27.7-61.9,61.9-61.9    h349.7c34.2,0,61.9,27.7,61.9,61.9V443.1z"/></g></g><g id="Background"><path class="st1" d="M492.3,418.4c0,34.2-27.7,61.9-61.9,61.9H80.7c-34.2,0-61.9-27.7-61.9-61.9V68.6c0-34.2,27.7-61.9,61.9-61.9   h349.7c34.2,0,61.9,27.7,61.9,61.9V418.4z"/></g><g id="Shadow"><path class="st2" d="M492.9,248.7l-144-144v-0.6h-56.8l-31.9,61H159.7v75h0.4l40.1,40.1l-40.5,77.6v49.5h1.5l73.2,73.2h198.9v-0.3   c32.8-1.5,59-28.6,59-61.8C492.3,409.6,492.9,248.7,492.9,248.7z"/></g><g id="Symbol"><polygon class="st3" id="da" points="348.9,158.7 290.3,271.1 348.9,271.1 348.9,345.4 251.6,345.4 219.9,406.3 159.7,406.3    159.7,356.8 221.1,239.1 159.7,239.1 159.7,164.1 260.2,164.1 292.1,103.1 348.9,103.1  "/></g></svg>