<svg id="mobile-menu-logo" class="logo mobile-menu-logo" width="277" height="315.24" enable-background="new 0 0 612 792" version="1.1" viewBox="0 0 277 315.24219" xmlns="http://www.w3.org/2000/svg"><g transform="translate(-116.76 -244.38)"><circle class="circle" cx="255.26" cy="409.12" r="134.5" fill="none" stroke="#000" stroke-miterlimit="10" stroke-width="8"/><polygon points="162.37 421.86 244.32 402.34 252.17 382.37 171.13 401.68" fill="none"/><path d="m234.32 244.38-29.355 4.4531-56.557 152.85-10.199 25.939-11 29 105.82-30-51.82 133 29.357-4.4531 57.881-156.43 8.8184-22.344 0.0547-0.0137 11-29-105.82 30zm95.498 91.834-29 8.332-62.5 166.33 134-36.787 11-29-105.82 30zm-77.646 46.158-7.8496 19.965-81.947 19.527 8.7637-20.184z"/></g></svg>
