<?xml version="1.0" encoding="UTF-8" standalone="no"?>
<svg
   xmlns:dc="http://purl.org/dc/elements/1.1/"
   xmlns:cc="http://creativecommons.org/ns#"
   xmlns:rdf="http://www.w3.org/1999/02/22-rdf-syntax-ns#"
   xmlns:svg="http://www.w3.org/2000/svg"
   xmlns="http://www.w3.org/2000/svg"
   width="143.59265mm"
   height="163.41678mm"
   viewBox="0 0 143.59265 163.41678"
   version="1.1">
  <g
     id="layer1"
     transform="translate(-33.659031,-55.724959)">
    <g
       id="g4491"
       transform="matrix(0.518385,0,0,0.518385,-26.867596,-70.957967)">
      <path
         style="fill:#ffffff;stroke:#000000;stroke-width:8;stroke-miterlimit:10;fill-opacity:1"
         d="m 389.75999,409.12 a 134.5,134.5 0 0 1 -134.5,134.5 134.5,134.5 0 0 1 -134.5,-134.5 134.5,134.5 0 0 1 134.5,-134.5 134.5,134.5 0 0 1 134.5,134.5 z"
         id="circle4485" />
      <path
         style="fill:none"
         d="m 252.17,382.37 -81.04,19.31 -8.76,20.18 81.95,-19.52 z"
         id="polygon4487" />
      <path
         id="path4489"
         d="m 234.32,244.38 -29.355,4.4531 -56.557,152.85 -10.199,25.939 -11,29 105.82,-30 -51.82,133 29.357,-4.4531 57.881,-156.43 8.8184,-22.344 0.0547,-0.0137 11,-29 -105.82,30 z m 95.498,91.834 -29,8.332 -62.5,166.33 134,-36.787 11,-29 -105.82,30 z m -77.646,46.158 -7.8496,19.965 -81.947,19.527 8.7637,-20.184 z" />
    </g>
  </g>
</svg>
