<?xml version="1.0" encoding="utf-8"?>
<!DOCTYPE svg PUBLIC "-//W3C//DTD SVG 1.1//EN" "http://www.w3.org/Graphics/SVG/1.1/DTD/svg11.dtd">
<svg version="1.1" id="Layer_1" xmlns="http://www.w3.org/2000/svg" xmlns:xlink="http://www.w3.org/1999/xlink" x="0px" y="0px"
	 width="612px" height="792px" viewBox="0 0 612 792" enable-background="new 0 0 612 792" xml:space="preserve">
<path stroke="red" d="M189.181,254L295,224l-11,29l-110.417,26.311l-20.692,4.931l58.754-158.788L241,121L189.181,254z"/>
<path stroke="blue" d="M239.71,303.242l-105.82,30l11-29L276,273l-58.754,158.789l-29.356,4.453L239.71,303.242z"/>
<path stroke="green" d="M284.181,353.379l105.819-30l-11,29l-131.11,31.242l58.754-158.789L336,220.379L284.181,353.379z"/>
<polygon stroke="yellow" points="144.89,304.242 155.088,278.302 177.818,278.302 169.367,298.409 "/>
<polygon stroke="gray" points="250.89,279.242 261.088,253.302 283.818,253.302 275.367,273.409 "/>
<circle fill="none" stroke="#000000" stroke-width="14" stroke-miterlimit="10" cx="258.666" cy="283.908" r="133.999"/>
</svg>
