<svg xmlns="http://www.w3.org/2000/svg" width="256" height="256" viewBox="0 0 256 256">
  <g transform="translate(-373.642 -318.344)">
    <path fill="#1D8CB5" d="M583.7 328.8h-164c-19.7 0-35.6 16-35.6 35.5v164c0 19.7 16 35.5 36 35.5h164c19.8 0 35.6-16 35.6-35.4v-164c0-19.7-15.7-35.6-35.3-35.6z"/>
    <linearGradient id="a" gradientUnits="userSpaceOnUse" x1="-808.9" y1="199.9" x2="-860.6" y2="49.2" gradientTransform="rotate(180 -17.27 206.273) scale(.5915)">
      <stop offset="0" stop-color="#FFF"/>
      <stop offset="1" stop-color="#FFF" stop-opacity="0"/>
    </linearGradient>
    <path opacity=".8" fill="url(#a)" d="M557 339H446.3c-29.3 0-53 23.7-53 53.3v108c1 23.2 4.7 8.6 11.6-17 8-29.7 34-55.7 66-75 24.4-15 52-24.5 101.7-25.4 28.2-1 25.7-37-16-44z"/>
  </g>
  <path d="M81.6 207.8V101.5H46.3v106.3h35.3zM64 87c12.3 0 20-8.2 20-18.4-.3-10.4-7.7-18.3-19.8-18.3-12 0-20 8-20 18.3C44.2 78.8 52 87 63.7 87h.3zm37.2 120.8h35.3v-59.4c0-3.2.2-6.3 1-8.6 2.7-6.4 8.5-13 18.3-13 12.7 0 18 9.8 18 24v57H209v-61c0-32.6-17.5-47.8-40.7-47.8-19 0-27.4 10.6-32 18h.2v-15.5h-35.3c.4 10 0 106.3 0 106.3z" fill="#FFF"/>
</svg>
