<svg
   xmlns="http://www.w3.org/2000/svg"
   id="svg8"
   viewBox="0 0 141.99202 117.43087">
  <style>
    path {
      fill: white;
      stroke: white;
    }
    #path3682 {
      fill: none;
    }

    
  </style>
  <g
     transform="translate(-29.339884,-82.411564)"
     id="layer1">
    <g
       id="g5738">
      <path
         style="fill:none;stroke-width:3;stroke-miterlimit:4;stroke-dasharray:none;stroke-opacity:1"
         d="m 156.08541,146.52727 c 1.27012,33.45125 -35.27568,60.33744 -66.826847,49.27914 -32.311175,-8.67844 -47.253968,-51.52104 -27.329478,-78.40511 17.839936,-28.314576 63.181525,-29.920256 82.979675,-2.93855 7.19961,9.02495 11.20537,20.52129 11.17665,32.06452 z"
         id="path3682" />
      <path
         id="path4538"
         d="m 101.0723,83.338026 c -3.20017,7.958162 -6.301927,16.044451 -11.265828,23.110664 -4.709442,7.51361 -10.331038,14.4468 -16.700007,20.60985 -9.117723,10.72189 -18.643056,21.49558 -30.654581,29.05118 -3.963673,2.16192 2.895829,-1.67342 -0.304838,0.25129 -1.790176,1.09472 -5.299506,2.82212 -1.552022,0.69707 4.749756,-2.63638 -6.009764,3.71574 -2.08552,1.4726 -1.795218,2.1678 -6.565131,3.36388 -7.603582,3.8726 6.55405,-6.4557 16.131215,-7.29566 24.175091,-10.94506 4.741585,-1.63911 9.571067,-3.06981 14.137144,-5.17245 -1.536308,0.90242 -6.513505,3.62518 -2.321698,1.12274 4.766242,-3.12846 10.592493,-3.81584 15.650081,-6.31282 -1.538797,0.92887 -7.165232,4.13162 -2.791669,1.55557 1.579294,-1.01803 4.959452,-2.699 1.289343,-0.68084 1.477881,-0.99389 6.906887,-3.91029 6.20377,-3.25669 -1.413014,0.90923 -4.393541,2.17851 -1.374852,0.40928 1.583141,-0.9648 5.863423,-3.37392 1.968783,-1.13908 2.806453,-1.62575 1.414575,-0.78191 -0.472159,0.33704 -0.89892,0.45385 3.342905,-2.93976 4.367819,-4.1915 1.237939,-1.46638 6.006471,-4.93025 5.967514,-2.76106 -2.143028,2.9735 -8.473965,6.63627 -9.600975,7.45608 2.890566,-1.63413 0.03099,-4.8e-4 -1.367579,0.78846 1.344957,-0.87603 3.94702,-2.16342 1.14006,-0.45321 -1.332615,0.75506 -5.334365,3.43721 -5.539206,3.10282 1.630105,-1.13593 3.367933,-1.97382 0.709055,-0.4804 -2.852634,1.62826 -0.309445,0.16821 -1.613634,1.0377 -4.78725,2.92791 -10.309777,4.25994 -15.565112,6.08267 1.253672,-0.81905 5.09628,-2.68232 1.645644,-0.66203 -7.962379,4.47394 -17.026687,6.27648 -25.389023,9.80336 -1.371186,-0.0438 -6.547324,2.66365 -5.661636,1.44302 1.801976,-1.24825 2.582949,-1.11126 0.451256,0.16674 -2.055097,1.08267 -3.96359,4.38983 -6.515507,3.24975 3.691945,-3.21517 8.033034,-5.58819 12.280072,-7.96477 -3.611759,2.17143 0.510016,-0.32926 2.088333,-1.17486 -1.287271,0.78736 -6.0716,3.58224 -2.578013,1.18699 12.852225,-9.66663 22.70913,-22.51587 33.669945,-34.12919 4.883332,-5.68298 8.986221,-11.99653 12.862282,-18.39179 2.8476,-4.831598 4.752363,-10.134786 6.579664,-15.395 1.264601,-2.042712 3.702827,-2.769259 5.771585,-3.696724 z"
         style="fill-opacity:1;stroke-width:1.85300827;stroke-linecap:round;stroke-linejoin:round;stroke-miterlimit:4;stroke-dasharray:none;stroke-opacity:1" />
      <path
         style="fill-opacity:1;stroke-width:1.86500001;stroke-linecap:round;stroke-linejoin:round;stroke-miterlimit:4;stroke-dasharray:none;stroke-opacity:1"
         d="m 95.154537,129.93667 c 2.037428,-5.717 6.508723,-12.02981 13.405683,-11.10753 7.31127,-2.16861 12.4584,2.9619 14.136,9.63897 2.1597,6.58636 -1.71287,13.27445 -7.82567,15.9793 -5.08553,3.09129 -13.50861,7.20251 -17.98614,1.18562 -3.776597,-4.48057 -5.229168,-12.6043 -1.117224,-16.99068 2.668369,-1.21037 6.799674,-5.11821 3.621459,-0.50868 -1.492335,4.9117 -0.0097,15.04162 5.752185,17.16709 2.93839,1.2756 11.07102,-2.51532 10.36189,-2.23842 -8.23924,4.93581 4.51,-2.50896 2.59805,-7.10355 0.35126,-5.96567 -3.04338,-15.2639 -10.43847,-13.83146 -3.2521,-0.51743 -10.3899,1.45457 -3.63871,-1.65014 4.74709,-2.84521 -2.64385,1.28619 2.52482,-0.17512 -1.46274,2.8247 -5.82776,6.00986 -9.117647,8.20617 -0.758744,0.47612 -1.517474,0.95239 -2.276226,1.42843 z"
         id="path4542" />
      <path
         style="fill-opacity:1;stroke-width:1.86500001;stroke-linecap:round;stroke-linejoin:round;stroke-miterlimit:4;stroke-dasharray:none;stroke-opacity:1"
         d="m 122.69873,136.12706 c -1.68299,7.32191 -7.05758,13.06188 -10.76119,19.43065 -4.69548,5.25128 -7.14143,12.05542 -12.82953,16.50761 -5.10659,5.8755 -11.598216,10.18975 -17.892035,14.67198 -3.050778,1.82271 -7.423841,3.73726 -1.682595,0.65726 6.707582,-3.84266 -9.719036,5.60944 -2.532932,1.63887 6.825042,-4.02565 -7.803743,4.36354 -1.086967,0.52234 5.321471,-2.77834 -0.291276,-0.34699 -2.524206,0.47407 -1.990779,2.18946 10.179376,-5.72213 3.615467,-1.95526 -9.26995,4.89429 11.938912,-6.9206 1.891729,-1.07012 -3.368207,2.06203 4.802499,-3.79753 6.329779,-4.83635 6.704021,-5.12675 12.258572,-11.56273 17.77776,-17.92664 4.078,-5.27001 -0.72447,0.19327 -2.26912,2.63974 5.7905,-9.45966 12.96247,-18.10085 17.5317,-28.27679 1.47738,-0.82579 2.95476,-1.65157 4.43214,-2.47736 z"
         id="path4546" />
      <path
         style="fill-opacity:1;stroke-width:1.86500001;stroke-linecap:round;stroke-linejoin:round;stroke-miterlimit:4;stroke-dasharray:none;stroke-opacity:1"
         d="m 147.17084,134.02775 c -2.40419,6.97062 -7.48788,12.86032 -14.28194,15.85312 -5.65162,3.29057 6.49057,-4.14636 -0.20434,0.50391 -7.74343,5.73581 -16.78198,9.5361 -26.00013,12.11296 -3.26965,0.45713 -4.59491,0.073 -0.80531,-1.47695 6.7028,-5.05718 12.91185,5.41087 19.48894,6.72416 6.52366,3.0848 13.36575,5.3966 20.6175,6.14049 8.03076,1.52195 16.26412,0.72052 24.41409,0.89185 -2.21271,1.26928 -3.96417,3.95815 -6.80444,3.29601 -8.2953,-0.0668 -16.66511,0.54889 -24.77989,-1.49704 -7.37383,-0.57714 -13.96096,-3.92669 -20.52731,-6.97446 -3.85516,-2.33841 -11.53685,-6.28973 -13.16044,-7.63153 4.54399,-4.66276 12.53927,-3.37701 18.09952,-7.25205 2.26551,-0.93495 8.64829,-4.25819 3.30543,-1.32279 -5.5334,3.5229 3.82813,-3.20858 5.70169,-4.21248 3.20082,-1.77846 5.36519,-3.01218 0.84649,-0.40412 -2.31809,1.76451 5.38033,-4.39767 4.87379,-4.71585 2.76537,-3.47652 3.24767,-8.56073 8.14826,-9.53893 0.35568,-0.1649 0.71319,-0.33263 1.06809,-0.4963 z"
         id="path4548" />
    </g>
  </g>
</svg>
