<?xml version="1.0" encoding="utf-8"?>
<!-- Generator: Adobe Illustrator 16.0.0, SVG Export Plug-In . SVG Version: 6.00 Build 0)  -->
<!DOCTYPE svg PUBLIC "-//W3C//DTD SVG 1.1//EN" "http://www.w3.org/Graphics/SVG/1.1/DTD/svg11.dtd">
<svg version="1.1" id="Layer_1" xmlns="http://www.w3.org/2000/svg" xmlns:xlink="http://www.w3.org/1999/xlink" x="0px" y="0px"
	 width="612px" height="792px" viewBox="0 0 612 792" enable-background="new 0 0 612 792" xml:space="preserve">
<g>
	<g>
		<polygon fill="none" points="252.166,382.372 171.133,401.681 162.371,421.863 244.318,402.336 		"/>
		<polygon points="277.496,475.091 329.815,336.212 300.815,344.545 238.315,510.879 372.315,474.091 383.315,445.091 		"/>
		<path d="M277.262,376.392l0.054-0.013l11-29l-105.819,30l51.819-133l-29.355,4.454l-56.556,152.848h-0.001l-10.198,25.94l-11,29
			l105.82-30l-51.82,133l29.356-4.453l57.882-156.432L277.262,376.392z M162.371,421.863l8.763-20.183l81.033-19.309l-7.848,19.964
			L162.371,421.863z"/>
	</g>
	<circle fill="none" stroke="#000000" stroke-width="8" stroke-miterlimit="10" cx="255.26" cy="409.121" r="134.5"/>
</g>
</svg>
