<?xml version="1.0" encoding="utf-8"?>
<!-- Svg Vector Icons : http://www.onlinewebfonts.com/icon -->
<!DOCTYPE svg PUBLIC "-//W3C//DTD SVG 1.1//EN" "http://www.w3.org/Graphics/SVG/1.1/DTD/svg11.dtd">
<svg version="1.1" xmlns="http://www.w3.org/2000/svg" xmlns:xlink="http://www.w3.org/1999/xlink" x="0px" y="0px" viewBox="0 0 1000 1000" enable-background="new 0 0 1000 1000" xml:space="preserve">
<metadata> Svg Vector Icons : http://www.onlinewebfonts.com/icon </metadata>
<g><g><g><path d="M981,876c-23-16-42.5-35.6-60.8-56.6c-14.1-16.2-25.9-34-37.8-51.8c-7.6-11.4-16-22.2-24.3-33.1c-7.1-9.1-14.6-17.9-22-26.8c-10.1-12.2-20.2-24.4-30.4-36.4c-6.6-7.8-13.4-15.5-20.3-23c-5.5-6-11.2-12-17.4-17.2c-4.7-3.9-10.2-6.8-15.6-9.7c-5.9-3.2-12-5.8-18-8.8c-7.3-3.6-14.5-7.2-21.7-11c-8.1-4.2-16-8.6-24.1-12.8c-7.4-3.9-14.9-7.7-22.3-11.7c-9.9-5.4-19.7-10.8-29.5-16.3c-8.5-4.8-17-9.5-25.3-14.5c-3.7-2.2-7-4.8-10.5-7.2c-3.1-2.1-6.3-4.2-9.5-6.3c2.3-2.8,4.5-5.1,6.1-7.7c2.5-4,3.4-8.3,0.9-12.7c-0.3-0.5-0.7-1.2-1.2-1.5c-7.8-13-19.1-22.3-33-28.7c-7.9-3.6-16.1-6.5-24.5-8.6c-3.4-2-6.9-4-10.4-5.9c-6.1-3.3-11.8-6.9-16-12.7c-1.6-2.3-4.4-3.8-7-6.1c0,0.1-0.1-1-0.7-1.4c-2.5-1.8-5-3.4-7.7-5.2c-0.7-1.4-1.8-2.3-3.2-3c-0.7-0.4-1.4-0.7-2.2-1.1c-0.4-0.4-0.8-0.7-1.3-1.1c-3.1-2.8-5.7-6.2-8.4-9.4c-5.8-6.9-11.8-13.7-17.1-20.9c-7.4-10-14.6-20.2-21.4-30.6c-10.1-15.5-20.3-31.1-29.6-47.1c-10-17.3-18.9-35.3-28.7-52.9c-2.3-4.2-5.9-7.8-9.1-11.5c-3.5-3.9-7.1-7.8-10.9-11.4c-6.1-5.7-12.1-11.4-18.7-16.5c-14.8-11.5-28.2-24.5-42.6-36.3c-9.1-7.4-17.9-15.3-27.5-22c-16.1-11.3-32.7-21.9-49.2-32.6c-14.7-9.6-28.6-20.2-41.7-31.9c-9.6-8.7-19.3-17.3-28.6-26.2c-6.9-6.6-13.4-13.5-20-20.3c-9-9.4-17.8-18.8-26.8-28.2c-0.9-1-2.2-1.6-3.2-2.4c-0.3,0.2-0.6,0.3-0.9,0.5c0.2,1.5,0.2,3.1,0.8,4.5c4.2,10.1,7.8,20.6,14.8,29.1c5.7,6.9,11.4,14,18,20.1c9.9,9.1,20.6,17.5,31,26.1c0.6,0.5,1.1,1,1.3,2.1c-0.8-0.3-1.6-0.5-2.3-0.9c-14.2-8.8-28.5-17.5-42.6-26.6c-11.6-7.5-22.9-15.3-34.2-23.2c-7.5-5.2-14.6-11-22.1-16.1c-8.8-5.9-17.9-11.4-26.9-17c-1.4-0.9-3.1-1.3-5.5-2.2c0.4,1.7,0.4,2.8,0.9,3.5c5.4,9,11.2,17.6,19.1,24.9c7.8,7.2,16.4,13.3,25.1,19.3c7.8,5.4,15.5,11,23.3,16.3c4,2.7,8.3,5.1,12.5,7.5c6.6,3.9,13.3,7.7,19.9,11.5c1.9,1.1,4,1.9,6,2.9c-4.6-1.8-9.3-3.5-13.8-5.5c-7.8-3.5-15.5-7.2-23.2-10.8c-12.3-5.7-24.5-11.8-37-17.1C54.6,78.5,37,71.8,19.6,65c-2-0.8-4.3-1-6.6-1.3c-0.8-0.1-1.6,0.4-2.5,0.6c0.3,0.9,0.3,2.1,0.8,2.7c1.3,1.5,2.8,2.9,4.3,4.2c11.3,9.7,24,16.9,37.5,23.1c11.2,5.2,22,11.2,33.1,16.6c3.8,1.9,7.9,3.2,11.8,4.7c-0.1,0.3-0.2,0.6-0.2,0.9c-0.8-0.2-1.6-0.3-2.3-0.6c-18.6-5.7-37.2-11.7-55.9-17c-8-2.3-16.5-3.4-24.8-4.7c-1.5-0.3-3.3,0.7-5,1.1c0.9,1.4,1.5,3,2.7,4.1c1.4,1.4,3.2,2.5,4.9,3.5c18.3,10.8,38.2,17.9,57.8,25.6c4.3,1.7,8.6,3.4,12.8,5.1c-0.1,0.3-0.2,0.7-0.3,1c-1.7-0.3-3.4-0.6-5.1-0.9c-10.6-1.9-21.1-3.9-31.7-5.6c-2.3-0.4-4.8,0.3-7.2,0.7c-1,0.2-1.8,1-3.4,1.8c2.8,2.2,4.8,4.5,7.3,5.8c11.4,5.6,22.8,11,34.3,16.4c0.5,0.2,1,0.5,1.6,0.9c-2.8,0.7-5.4,1.4-8.3,2.2c6.9,9.4,16.1,14.6,25.2,19.9c2.2,1.3,4.9,1.4,7.3,2.5c1.6,0.7,2.9,2,4.4,3.1c-2.6,3.4-2.1,5.8,1.1,8.6c6.6,5.9,14.4,9.9,22.2,14.1c2.6,1.4,4.2,4.7,6.4,7.1c1.9,2.1,4,4.1,6.1,6c1.8,1.6,3.8,3,5.7,4.5c-4.5,5.3-2.3,8.7,1.4,11.7c2.6,2.1,5.1,4.3,7.8,6.3c3.9,2.8,8.6,3.7,13.1,3.1c0.4-0.1,0.7-0.1,1.1-0.1c2.3,5.6,7.2,10.1,13,11.8c3.1,3.4,6.7,6.3,8.3,10.9c0.7,2.1,1.2,4,0.8,6.4c-0.3,2.4,1.1,5,0.9,7.5c-0.4,4.7,3.4,4.7,5.9,6.1c0.7,0.4,1.5,0.7,2.2,1c3.1,1.2,4.4,3.4,3.5,6.7c-0.6,2-0.5,3.5,1.4,4.7c2.6,1.7,5.2,3.6,7.8,5.4c1.7,1.1,3.3,2.3,5.1,3.3c1.1,0.6,2.4,1.2,3.6,1.3c2.2,0.1,3,1.2,2.7,3.2c-0.4,2.6,0.4,4.5,2.1,6.5c1.1,1.3,1.4,3.6,1.3,5.5c-0.3,6.2,1.4,8.5,7.4,10.2c2.8,0.8,5.4,2.1,6.4,5.4c1,3.2,2.6,5.6,6.5,6.2c3.5,0.5,5.2,3.5,5.1,6.9c-0.1,3.8,2.5,6,4.6,8.3c1.9,2.1,2.8,3.6,1.7,6.5c-1.4,4,0.9,7.7,2.2,11.4c0.2,0.5,1.7,0.5,2.8,0.7c-1.5,2.7-0.6,4.2,2.4,5.5c2.9,1.2,5.5,3.1,6.2,6.9c1,5.1,4.4,8.1,9.8,8.7c1,0.1,1.9,0.7,3.1,1.2c-1.5,0.6-2.7,1.1-3.8,1.5c0,0.3,0.1,0.6,0.1,0.8c1.3,0,2.6-0.3,3.9-0.1c1.3,0.2,2.5,0.8,3.8,1.3c-0.5,1-1,2-1.6,2.9c-0.5,0.7-1.3,1.3-1.8,2.1c-1.5,2-0.3,5.2,2.2,5.7c0.5,0.1,1,0,1.5,0.1c6.6,0.3,6.5,0.3,6.1,7c-0.4,7,2.1,13.3,5.8,19.2c0.6,1,2.5,1.1,3.7,1.9c1.1,0.7,2.2,1.6,2.9,2.6c1,1.7,1.8,3.6,2.5,5.5c0.9,2.5,1.5,4.6,5,5c1.3,0.2,2.4,3.5,3.4,5.6c1.7,3.6,3.3,7.3,5,10.9c0.4,1,1.1,1.9,1.3,2.9c0.8,4.1,2.7,6,6.7,6.4c2.3,0.2,4,0.9,5.9,2.8c2.3,2.3,6,3.2,9.1,4.8c1.7,0.9,3.4,1.8,5.1,2.7c3.7,2.2,7.4,4.4,11.1,6.5c2.7,1.5,3.8,4,3.2,7.4c-0.4,2.7-1.7,5.1-1,8.2c0.3,1.6-2.4,3.8-4.1,6.4c-0.7-3.7-2.6-5.3-5.2-4.3c-4.6,1.8-9.5,1.2-14.2,2.4c-4.2,1.1-8.3,2.3-12.5,3.4c-0.2,0.1-0.4,0.2-0.6,0.2c-7.4-1.4-14.3,1.5-21.4,2.2c-8.5,0.9-16.9,2.1-25.3,3.1c-10.2,1.2-20.4,2.2-30.6,3.5c-4.5-1.8-9.8,0.9-11.5,5.3c-1.9,4.8,0.6,9.8,5.2,11.9c1.5,0.7,3,1.4,4.5,2c1.4,7.7,8,13.8,15.5,15.2c-1,0.7-2,1.4-2.9,2.2c-1.5,1.3-3.6,3.1-2,5.4c1.5,2.2,3.3,4.5,6.7,3c1.3,1.5,0.2,5.9,3.2,4.1c4.8,2.4,8.9,4.4,13.1,6.5c0.4,4,1.9,5.4,8.1,6.6c2.3,0.4,4.6,0.6,7,0.7c2.3,0.1,4.6,0.1,7.4,0.1c-0.7,1-1.2,2-2,2.7c-4,3.4-4.1,6.6-0.3,10c0.9,0.8,1.9,1.6,2.6,2.6c2.7,3.3,2.7,3.3,6,3.3c0.5,1.1,0.7,2.5,1.4,2.8c2.8,1.3,5.4,3.6,8.9,2.2c0.4-0.2,1.3,0,1.6,0.4c1.2,1.6,2.1,3.6,3.5,4.8c1.3,1.1,3.3,1.5,5,2c0.7,0.2,1.8,0.3,2.4-0.1c3.8-2.2,7.9-0.3,11.8-1.2c0.2-0.1,0.5,0.2,1,0.3c-0.7,0.7-1.3,1.3-2.5,2.5c5,0.9,9.1,2.6,13.7,0.9c0.8-0.3,1.8-0.8,2.5-0.6c2.8,0.8,5.5,1.8,8.2,2.7c-0.5,0.3-1.3,0.8-2.6,1.6c3.4,2.5,7,3.3,10.8,3.6c1.4,0.1,2.8,0.2,4.1,0.5c3.4,0.9,6.9-0.2,9.3-3.6c7.9-11,16.1-21.9,23.5-33.3c3.1-4.8,7-7.2,12.1-7.9c8.5-1.2,16.4-4,24.2-7.5c1.6-0.7,3.1-1.1,5.3,0.1c2.3,1.3,5.4,1.1,8.2,1.6c-1,3,1.3,5,2.7,7.4c0.4,0.7,1.1,1.7,0.8,2.3c-1.7,3.5,0.5,6.5,1.2,9.7c0.1,0.7,1.2,1.2,2,1.7c1.7,1,3.6,1.9,5.3,2.9c2.5,1.5,3.9,3.6,4,6.7c0,1.2,1.3,2.9,2.4,3.2c3.2,1,4.4,3.3,5.5,6.1c0.4,1.1,1.4,2.3,2.4,2.7c7.7,3,15.5,5.8,23.4,8.5c2.4,0.8,4.9,1.1,7.4,1.7c0.8,0.2,2.2,0.5,2.3,1c0.8,3.3,3.7,3.5,6.1,4.3c3,1,6.1,1.6,6.5,5.7c0,0.6,1.4,1.4,2.3,1.7c2.9,1.1,6,1.9,8.9,3c0.9,0.3,1.6,1.4,2.2,2.2c1.2,1.4,2.1,3.3,3.6,4.3c6.2,4,12.8,6.8,20.4,6.3c1-0.1,2-0.4,3.2-0.7c0.1,1,0.1,2,0.2,3c0.9,0.1,1.7,0.3,2.8,0.5c-0.3,0.9-0.5,1.7-0.7,2.3c1,1.9,4.6,1.8,8.9-0.5c-0.6,1.9-0.7,3.4,2,3.1c3-0.3,4.5,0.9,4.5,3.9c0,3.3,2.6,4.6,4.7,5.6c1.3,0.6,3.7-0.6,5.3-1.5c1.6-0.9,2.8-2.6,4.4-4.2c1,3.9-2.2,5.9-4,8.6c1.2,0.8,2,1.7,3,1.9c2.5,0.7,5.2,0.9,5.5,4.4c0,0.2,2.5,0.7,3.5,0.3c3.5-1.5,6.4-1.2,7.7,2.3c1.8,5.2,7.2,6.9,9.5,11.4c0.4,0.9,2,1.2,3.2,1.9c-0.4,0.3-0.8,0.6-1.2,0.9c-1.7,1.1-1.4,2.2,0.3,2.8c4.8,1.5,9.4,3.7,14.6,2.4c0.7-0.2,2.1,0.8,2.4,1.5c2,4.8,5.4,7.8,10.3,9.5c0.8,0.3,1.6,1.5,1.9,2.4c1,3.3,1.6,6.7,2.8,10c0.7,1.9,2.3,3.6,3.5,5.3c1,1.3,1.8,2.9,3.1,3.8c3.4,2.4,7.3,2,11.2,1.5c1.6-0.2,3.1-1,4.6-1.2c1-0.1,2.3,0.2,3.2,0.8c2.8,2.1,5.4,4.3,8,6.5c0.2,0.2,0.5,0.4,0.6,0.7c1.5,6.2,7.9,7.7,11.4,12c1.5,1.8,2.5,4,3.8,5.9c0.6,0.8,1.7,1.2,2.6,1.9c0.9,0.7,2.1,1.4,2.5,2.3c2.8,7.4,6.8,14.1,12.7,19.3c3.1,2.7,6.1,5.4,10.5,6.6c2.1,0.6,3.6,3.8,5.3,5.9c3.6,4.6,6.9,9.5,10.9,13.7c2.9,3,6.4,5.9,11.3,4.2c0.5-0.2,1.4,0.3,1.7,0.8c0.7,0.8,1.5,1.8,1.7,2.9c1.9,8.2,8.7,13,13.4,19.2c0.2,0.3,0.6,0.7,0.9,0.7c2.7,0.1,4.9,1.3,6.9,3c0.5,0.4,1.7,0.5,2.2,0.2c2.9-1.8,3.8,0.4,4.8,2.3c0.4,0.7,0.5,1.5,0.7,2.3c1.3,6.8,5.6,12.2,9.3,17.7c3.1,4.6,6.8,8.8,10.4,13c1.3,1.5,2.9,2.7,5.1,4.6c1.3-2.8,2.5-5.5,4-8.7c1.5,2.8,2.7,5.4,4.1,7.8c4.2,7.3,8.3,14.6,12.9,21.7c1.8,2.8,4.6,5.1,7.2,7.3c0.5,0.4,3.1-0.5,3.5-1.4c0.9-1.9,1.6-4.3,1.4-6.4c-0.7-8.9-1.8-17.7-2.7-26.6c-0.1-0.6-0.1-1.1-0.3-2.3c2.2,4.7,4.2,8.6,5.9,12.7c2.4,5.8,4.6,11.6,6.7,17.5c4.9,13.9,12.3,26.6,19.2,39.5c0.9,1.8,2.4,3.3,3.7,4.8c0.3,0.3,2-0.1,2.1-0.5c0.5-1.6,0.9-3.3,0.9-5c0.5-11-1.2-21.9-3.7-32.6c-3.5-14.6-7.6-29-11.4-43.5c-0.4-1.7-0.9-3.3-0.8-5.2c2.1,4.7,4.2,9.4,6.3,14.1c6.8,15,13.4,30.2,20.6,45c4.2,8.6,8.9,17.1,15.5,24.2c3.1,3.4,6.3,6.8,9.6,10.3c2.3-1.7,2.6-3.9,2.1-6.3c-1.1-5.4-1.9-10.8-3.7-16c-5.8-16.1-11.7-32.2-18-48.1c-5-12.6-10.5-25.1-15.8-37.6c-0.2-0.4-0.3-0.9,0-1.5c1.1,2.2,2.1,4.5,3.2,6.7c10.2,20.7,21.4,41,34.5,60c5.9,8.6,13.3,16,22.3,21.5c2.7,1.6,5.2,3.5,7.7,5.3c0.3-0.1,0.6-0.2,0.8-0.4c-0.3-1.4-0.4-3-1.1-4.3c-7-12.9-14-25.9-21.3-38.6c-10.1-17.7-20.5-35.2-30.7-52.9c-7.1-12.2-14.2-24.4-21.2-36.6c-0.3-0.6-0.6-1.2-0.4-2.2c2.1,3,4.1,6.1,6.3,9c4,5.3,7.9,10.7,12.3,15.7c6.2,7,12.7,13.9,19.3,20.5c2.9,2.9,6.3,5.3,9.7,7.8c8.4,6.3,17.6,10.7,27.9,13c2.9,0.6,5.7,1.6,8.5,2.2c0.8,0.2,1.8-0.2,2.7-0.3c-0.4-0.9-0.6-2-1.3-2.5C986.2,879.6,983.6,877.8,981,876z M589.6,532.2c-1.3-1.7-2.9-2.8-2.9-4c-0.1-1.9,2.8-3,6-2.4C591.8,527.7,590.9,529.6,589.6,532.2z"/></g></g><g></g><g></g><g></g><g></g><g></g><g></g><g></g><g></g><g></g><g></g><g></g><g></g><g></g><g></g><g></g></g>
</svg>