<svg xmlns="http://www.w3.org/2000/svg" viewBox="0 0 1000 1000"><path d="M981 876c-23-16-42.5-35.6-60.8-56.6-14.1-16.2-25.9-34-37.8-51.8-7.6-11.4-16-22.2-24.3-33.1-7.1-9.1-14.6-17.9-22-26.8-10.1-12.2-20.2-24.4-30.4-36.4-6.6-7.8-13.4-15.5-20.3-23-5.5-6-11.2-12-17.4-17.2-4.7-3.9-10.2-6.8-15.6-9.7-5.9-3.2-12-5.8-18-8.8-7.3-3.6-14.5-7.2-21.7-11-8.1-4.2-16-8.6-24.1-12.8-7.4-3.9-14.9-7.7-22.3-11.7-9.9-5.4-19.7-10.8-29.5-16.3-8.5-4.8-17-9.5-25.3-14.5-3.7-2.2-7-4.8-10.5-7.2-3.1-2.1-6.3-4.2-9.5-6.3 2.3-2.8 4.5-5.1 6.1-7.7 2.5-4 3.4-8.3.9-12.7-.3-.5-.7-1.2-1.2-1.5-7.8-13-19.1-22.3-33-28.7-7.9-3.6-16.1-6.5-24.5-8.6-3.4-2-6.9-4-10.4-5.9-6.1-3.3-11.8-6.9-16-12.7-1.6-2.3-4.4-3.8-7-6.1 0 .1-.1-1-.7-1.4-2.5-1.8-5-3.4-7.7-5.2-.7-1.4-1.8-2.3-3.2-3-.7-.4-1.4-.7-2.2-1.1-.4-.4-.8-.7-1.3-1.1-3.1-2.8-5.7-6.2-8.4-9.4-5.8-6.9-11.8-13.7-17.1-20.9-7.4-10-14.6-20.2-21.4-30.6-10.1-15.5-20.3-31.1-29.6-47.1-10-17.3-18.9-35.3-28.7-52.9-2.3-4.2-5.9-7.8-9.1-11.5-3.5-3.9-7.1-7.8-10.9-11.4-6.1-5.7-12.1-11.4-18.7-16.5-14.8-11.5-28.2-24.5-42.6-36.3-9.1-7.4-17.9-15.3-27.5-22-16.1-11.3-32.7-21.9-49.2-32.6-14.7-9.6-28.6-20.2-41.7-31.9-9.6-8.7-19.3-17.3-28.6-26.2-6.9-6.6-13.4-13.5-20-20.3-9-9.4-17.8-18.8-26.8-28.2-.9-1-2.2-1.6-3.2-2.4-.3.2-.6.3-.9.5.2 1.5.2 3.1.8 4.5 4.2 10.1 7.8 20.6 14.8 29.1 5.7 6.9 11.4 14 18 20.1 9.9 9.1 20.6 17.5 31 26.1.6.5 1.1 1 1.3 2.1-.8-.3-1.6-.5-2.3-.9-14.2-8.8-28.5-17.5-42.6-26.6-11.6-7.5-22.9-15.3-34.2-23.2-7.5-5.2-14.6-11-22.1-16.1-8.8-5.9-17.9-11.4-26.9-17-1.4-.9-3.1-1.3-5.5-2.2.4 1.7.4 2.8.9 3.5 5.4 9 11.2 17.6 19.1 24.9C67 68.9 75.6 75 84.3 81c7.8 5.4 15.5 11 23.3 16.3 4 2.7 8.3 5.1 12.5 7.5 6.6 3.9 13.3 7.7 19.9 11.5 1.9 1.1 4 1.9 6 2.9-4.6-1.8-9.3-3.5-13.8-5.5-7.8-3.5-15.5-7.2-23.2-10.8-12.3-5.7-24.5-11.8-37-17.1-17.4-7.3-35-14-52.4-20.8-2-.8-4.3-1-6.6-1.3-.8-.1-1.6.4-2.5.6.3.9.3 2.1.8 2.7 1.3 1.5 2.8 2.9 4.3 4.2 11.3 9.7 24 16.9 37.5 23.1 11.2 5.2 22 11.2 33.1 16.6 3.8 1.9 7.9 3.2 11.8 4.7-.1.3-.2.6-.2.9-.8-.2-1.6-.3-2.3-.6-18.6-5.7-37.2-11.7-55.9-17-8-2.3-16.5-3.4-24.8-4.7-1.5-.3-3.3.7-5 1.1.9 1.4 1.5 3 2.7 4.1 1.4 1.4 3.2 2.5 4.9 3.5 18.3 10.8 38.2 17.9 57.8 25.6 4.3 1.7 8.6 3.4 12.8 5.1-.1.3-.2.7-.3 1l-5.1-.9c-10.6-1.9-21.1-3.9-31.7-5.6-2.3-.4-4.8.3-7.2.7-1 .2-1.8 1-3.4 1.8 2.8 2.2 4.8 4.5 7.3 5.8 11.4 5.6 22.8 11 34.3 16.4.5.2 1 .5 1.6.9-2.8.7-5.4 1.4-8.3 2.2 6.9 9.4 16.1 14.6 25.2 19.9 2.2 1.3 4.9 1.4 7.3 2.5 1.6.7 2.9 2 4.4 3.1-2.6 3.4-2.1 5.8 1.1 8.6 6.6 5.9 14.4 9.9 22.2 14.1 2.6 1.4 4.2 4.7 6.4 7.1 1.9 2.1 4 4.1 6.1 6 1.8 1.6 3.8 3 5.7 4.5-4.5 5.3-2.3 8.7 1.4 11.7 2.6 2.1 5.1 4.3 7.8 6.3 3.9 2.8 8.6 3.7 13.1 3.1.4-.1.7-.1 1.1-.1 2.3 5.6 7.2 10.1 13 11.8 3.1 3.4 6.7 6.3 8.3 10.9.7 2.1 1.2 4 .8 6.4-.3 2.4 1.1 5 .9 7.5-.4 4.7 3.4 4.7 5.9 6.1.7.4 1.5.7 2.2 1 3.1 1.2 4.4 3.4 3.5 6.7-.6 2-.5 3.5 1.4 4.7 2.6 1.7 5.2 3.6 7.8 5.4 1.7 1.1 3.3 2.3 5.1 3.3 1.1.6 2.4 1.2 3.6 1.3 2.2.1 3 1.2 2.7 3.2-.4 2.6.4 4.5 2.1 6.5 1.1 1.3 1.4 3.6 1.3 5.5-.3 6.2 1.4 8.5 7.4 10.2 2.8.8 5.4 2.1 6.4 5.4 1 3.2 2.6 5.6 6.5 6.2 3.5.5 5.2 3.5 5.1 6.9-.1 3.8 2.5 6 4.6 8.3 1.9 2.1 2.8 3.6 1.7 6.5-1.4 4 .9 7.7 2.2 11.4.2.5 1.7.5 2.8.7-1.5 2.7-.6 4.2 2.4 5.5 2.9 1.2 5.5 3.1 6.2 6.9 1 5.1 4.4 8.1 9.8 8.7 1 .1 1.9.7 3.1 1.2-1.5.6-2.7 1.1-3.8 1.5 0 .3.1.6.1.8 1.3 0 2.6-.3 3.9-.1 1.3.2 2.5.8 3.8 1.3-.5 1-1 2-1.6 2.9-.5.7-1.3 1.3-1.8 2.1-1.5 2-.3 5.2 2.2 5.7.5.1 1 0 1.5.1 6.6.3 6.5.3 6.1 7-.4 7 2.1 13.3 5.8 19.2.6 1 2.5 1.1 3.7 1.9 1.1.7 2.2 1.6 2.9 2.6 1 1.7 1.8 3.6 2.5 5.5.9 2.5 1.5 4.6 5 5 1.3.2 2.4 3.5 3.4 5.6 1.7 3.6 3.3 7.3 5 10.9.4 1 1.1 1.9 1.3 2.9.8 4.1 2.7 6 6.7 6.4 2.3.2 4 .9 5.9 2.8 2.3 2.3 6 3.2 9.1 4.8l5.1 2.7c3.7 2.2 7.4 4.4 11.1 6.5 2.7 1.5 3.8 4 3.2 7.4-.4 2.7-1.7 5.1-1 8.2.3 1.6-2.4 3.8-4.1 6.4-.7-3.7-2.6-5.3-5.2-4.3-4.6 1.8-9.5 1.2-14.2 2.4-4.2 1.1-8.3 2.3-12.5 3.4-.2.1-.4.2-.6.2-7.4-1.4-14.3 1.5-21.4 2.2-8.5.9-16.9 2.1-25.3 3.1-10.2 1.2-20.4 2.2-30.6 3.5-4.5-1.8-9.8.9-11.5 5.3-1.9 4.8.6 9.8 5.2 11.9 1.5.7 3 1.4 4.5 2 1.4 7.7 8 13.8 15.5 15.2-1 .7-2 1.4-2.9 2.2-1.5 1.3-3.6 3.1-2 5.4 1.5 2.2 3.3 4.5 6.7 3 1.3 1.5.2 5.9 3.2 4.1 4.8 2.4 8.9 4.4 13.1 6.5.4 4 1.9 5.4 8.1 6.6 2.3.4 4.6.6 7 .7 2.3.1 4.6.1 7.4.1-.7 1-1.2 2-2 2.7-4 3.4-4.1 6.6-.3 10 .9.8 1.9 1.6 2.6 2.6 2.7 3.3 2.7 3.3 6 3.3.5 1.1.7 2.5 1.4 2.8 2.8 1.3 5.4 3.6 8.9 2.2.4-.2 1.3 0 1.6.4 1.2 1.6 2.1 3.6 3.5 4.8 1.3 1.1 3.3 1.5 5 2 .7.2 1.8.3 2.4-.1 3.8-2.2 7.9-.3 11.8-1.2.2-.1.5.2 1 .3l-2.5 2.5c5 .9 9.1 2.6 13.7.9.8-.3 1.8-.8 2.5-.6 2.8.8 5.5 1.8 8.2 2.7-.5.3-1.3.8-2.6 1.6 3.4 2.5 7 3.3 10.8 3.6 1.4.1 2.8.2 4.1.5 3.4.9 6.9-.2 9.3-3.6 7.9-11 16.1-21.9 23.5-33.3 3.1-4.8 7-7.2 12.1-7.9 8.5-1.2 16.4-4 24.2-7.5 1.6-.7 3.1-1.1 5.3.1 2.3 1.3 5.4 1.1 8.2 1.6-1 3 1.3 5 2.7 7.4.4.7 1.1 1.7.8 2.3-1.7 3.5.5 6.5 1.2 9.7.1.7 1.2 1.2 2 1.7 1.7 1 3.6 1.9 5.3 2.9 2.5 1.5 3.9 3.6 4 6.7 0 1.2 1.3 2.9 2.4 3.2 3.2 1 4.4 3.3 5.5 6.1.4 1.1 1.4 2.3 2.4 2.7 7.7 3 15.5 5.8 23.4 8.5 2.4.8 4.9 1.1 7.4 1.7.8.2 2.2.5 2.3 1 .8 3.3 3.7 3.5 6.1 4.3 3 1 6.1 1.6 6.5 5.7 0 .6 1.4 1.4 2.3 1.7 2.9 1.1 6 1.9 8.9 3 .9.3 1.6 1.4 2.2 2.2 1.2 1.4 2.1 3.3 3.6 4.3 6.2 4 12.8 6.8 20.4 6.3 1-.1 2-.4 3.2-.7.1 1 .1 2 .2 3 .9.1 1.7.3 2.8.5-.3.9-.5 1.7-.7 2.3 1 1.9 4.6 1.8 8.9-.5-.6 1.9-.7 3.4 2 3.1 3-.3 4.5.9 4.5 3.9 0 3.3 2.6 4.6 4.7 5.6 1.3.6 3.7-.6 5.3-1.5 1.6-.9 2.8-2.6 4.4-4.2 1 3.9-2.2 5.9-4 8.6 1.2.8 2 1.7 3 1.9 2.5.7 5.2.9 5.5 4.4 0 .2 2.5.7 3.5.3 3.5-1.5 6.4-1.2 7.7 2.3 1.8 5.2 7.2 6.9 9.5 11.4.4.9 2 1.2 3.2 1.9l-1.2.9c-1.7 1.1-1.4 2.2.3 2.8 4.8 1.5 9.4 3.7 14.6 2.4.7-.2 2.1.8 2.4 1.5 2 4.8 5.4 7.8 10.3 9.5.8.3 1.6 1.5 1.9 2.4 1 3.3 1.6 6.7 2.8 10 .7 1.9 2.3 3.6 3.5 5.3 1 1.3 1.8 2.9 3.1 3.8 3.4 2.4 7.3 2 11.2 1.5 1.6-.2 3.1-1 4.6-1.2 1-.1 2.3.2 3.2.8 2.8 2.1 5.4 4.3 8 6.5.2.2.5.4.6.7 1.5 6.2 7.9 7.7 11.4 12 1.5 1.8 2.5 4 3.8 5.9.6.8 1.7 1.2 2.6 1.9.9.7 2.1 1.4 2.5 2.3 2.8 7.4 6.8 14.1 12.7 19.3 3.1 2.7 6.1 5.4 10.5 6.6 2.1.6 3.6 3.8 5.3 5.9 3.6 4.6 6.9 9.5 10.9 13.7 2.9 3 6.4 5.9 11.3 4.2.5-.2 1.4.3 1.7.8.7.8 1.5 1.8 1.7 2.9 1.9 8.2 8.7 13 13.4 19.2.2.3.6.7.9.7 2.7.1 4.9 1.3 6.9 3 .5.4 1.7.5 2.2.2 2.9-1.8 3.8.4 4.8 2.3.4.7.5 1.5.7 2.3 1.3 6.8 5.6 12.2 9.3 17.7 3.1 4.6 6.8 8.8 10.4 13 1.3 1.5 2.9 2.7 5.1 4.6 1.3-2.8 2.5-5.5 4-8.7 1.5 2.8 2.7 5.4 4.1 7.8 4.2 7.3 8.3 14.6 12.9 21.7 1.8 2.8 4.6 5.1 7.2 7.3.5.4 3.1-.5 3.5-1.4.9-1.9 1.6-4.3 1.4-6.4-.7-8.9-1.8-17.7-2.7-26.6-.1-.6-.1-1.1-.3-2.3 2.2 4.7 4.2 8.6 5.9 12.7 2.4 5.8 4.6 11.6 6.7 17.5 4.9 13.9 12.3 26.6 19.2 39.5.9 1.8 2.4 3.3 3.7 4.8.3.3 2-.1 2.1-.5.5-1.6.9-3.3.9-5 .5-11-1.2-21.9-3.7-32.6-3.5-14.6-7.6-29-11.4-43.5-.4-1.7-.9-3.3-.8-5.2l6.3 14.1c6.8 15 13.4 30.2 20.6 45 4.2 8.6 8.9 17.1 15.5 24.2 3.1 3.4 6.3 6.8 9.6 10.3 2.3-1.7 2.6-3.9 2.1-6.3-1.1-5.4-1.9-10.8-3.7-16-5.8-16.1-11.7-32.2-18-48.1-5-12.6-10.5-25.1-15.8-37.6-.2-.4-.3-.9 0-1.5 1.1 2.2 2.1 4.5 3.2 6.7 10.2 20.7 21.4 41 34.5 60 5.9 8.6 13.3 16 22.3 21.5 2.7 1.6 5.2 3.5 7.7 5.3.3-.1.6-.2.8-.4-.3-1.4-.4-3-1.1-4.3-7-12.9-14-25.9-21.3-38.6-10.1-17.7-20.5-35.2-30.7-52.9-7.1-12.2-14.2-24.4-21.2-36.6-.3-.6-.6-1.2-.4-2.2 2.1 3 4.1 6.1 6.3 9 4 5.3 7.9 10.7 12.3 15.7 6.2 7 12.7 13.9 19.3 20.5 2.9 2.9 6.3 5.3 9.7 7.8 8.4 6.3 17.6 10.7 27.9 13 2.9.6 5.7 1.6 8.5 2.2.8.2 1.8-.2 2.7-.3-.4-.9-.6-2-1.3-2.5-1.8-1.5-4.4-3.3-7-5.1zM589.6 532.2c-1.3-1.7-2.9-2.8-2.9-4-.1-1.9 2.8-3 6-2.4-.9 1.9-1.8 3.8-3.1 6.4z"/></svg>